<?xml version="1.0" standalone="no"?>
<!DOCTYPE svg PUBLIC "-//W3C//DTD SVG 1.0//EN" "http://www.w3.org/TR/2001/REC-SVG-20010904/DTD/svg10.dtd">
<svg xmlns="http://www.w3.org/2000/svg" xmlns:xlink="http://www.w3.org/1999/xlink" id="body_1" width="26" height="32">

<g transform="matrix(0.05078125 0 0 0.05078125 0 0)">
    <path d="M412.19 118.66C 408.9502 116.98551 405.79626 115.1499 402.74 113.16C 393.85254 107.28456 385.704 100.3615 378.47 92.54C 360.37 71.83 353.61 50.82 351.12 36.11L351.12 36.11L351.22 36.11C 349.14 23.9 350 16 350.13 16L350.13 16L267.69 16L267.69 334.78C 267.69 339.06 267.69 343.29 267.51 347.47C 267.51 347.99 267.46002 348.47 267.43002 349.03C 267.43002 349.26 267.43002 349.5 267.38004 349.74C 267.38004 349.8 267.38004 349.86 267.38004 349.91998C 265.61542 373.1464 252.41292 393.97348 232.16003 405.47998C 221.76549 411.39355 210.009 414.4955 198.05003 414.47998C 159.64003 414.47998 128.51004 383.15997 128.51004 344.47998C 128.51004 305.8 159.64005 274.47998 198.05005 274.47998C 205.32086 274.47324 212.54695 275.6174 219.46005 277.87L219.46005 277.87L219.56006 193.93C 177.13167 188.44943 134.345 200.96634 101.56006 228.45C 87.350685 240.79602 75.40486 255.52693 66.260056 271.97998C 62.780056 277.97998 49.650055 302.08997 48.060055 341.21997C 47.060055 363.42996 53.730057 386.43997 56.910057 395.94998L56.910057 395.94998L56.910057 396.15C 58.910057 401.75 66.66006 420.86 79.290054 436.97C 89.47442 449.89267 101.50688 461.2445 115 470.66L115 470.66L115 470.46L115.2 470.66C 155.11 497.78 199.36 496 199.36 496C 207.02 495.69 232.68 496 261.82 482.19C 294.14 466.88 312.54 444.07 312.54 444.07C 324.29486 430.4408 333.6419 414.90863 340.18 398.14C 347.63998 378.53003 350.13 355.01 350.13 345.61002L350.13 345.61002L350.13 176.49C 351.13 177.09001 364.45 185.90001 364.45 185.90001C 364.45 185.90001 383.64 198.20001 413.58002 206.21C 435.06003 211.91 464 213.11 464 213.11L464 213.11L464 131.27C 453.86 132.37 433.27 129.17 412.19 118.66z" stroke="none" fill="#4d4d4d" fill-rule="nonzero" />
</g>
</svg>